<svg width="98" height="98" viewBox="0 0 98 98" fill="none" xmlns="http://www.w3.org/2000/svg">
<g id="devicon:linkedin">
<path id="Vector" d="M88.8125 2.29723H9.1875C7.38086 2.27884 5.64072 2.9779 4.34889 4.24102C3.05707 5.50414 2.31909 7.22814 2.29688 9.03473V88.9813C2.3231 90.7852 3.06285 92.5053 4.35424 93.7651C5.64563 95.0249 7.38348 95.7219 9.1875 95.7035H88.8125C90.6192 95.7178 92.3582 95.0164 93.6494 93.7525C94.9405 92.4886 95.6789 90.765 95.7031 88.9583V9.01176C95.6709 7.21046 94.929 5.49468 93.6387 4.23737C92.3484 2.98005 90.614 2.28282 88.8125 2.29723Z" fill="#0076B2"/>
<path id="Vector_2" d="M17.1025 38.2031H30.968V82.8161H17.1025V38.2031ZM24.0391 16C25.6294 16 27.1839 16.4717 28.5061 17.3554C29.8283 18.239 30.8587 19.495 31.4669 20.9644C32.0752 22.4338 32.2339 24.0506 31.9231 25.6102C31.6123 27.1699 30.8459 28.6023 29.7208 29.7262C28.5958 30.8502 27.1626 31.6153 25.6027 31.9246C24.0428 32.2339 22.4262 32.0736 20.9573 31.464C19.4885 30.8544 18.2335 29.8228 17.3511 28.4998C16.4687 27.1767 15.9985 25.6217 16 24.0314C16.002 21.9006 16.8499 19.8578 18.3573 18.3519C19.8647 16.8459 21.9083 16 24.0391 16ZM39.6655 38.2031H52.9567V44.3281H53.1405C54.9933 40.8216 59.5105 37.1236 66.2556 37.1236C80.2972 37.093 82.9003 46.3341 82.9003 58.3161V82.8161H69.0348V61.1106C69.0348 55.9427 68.943 49.2894 61.8303 49.2894C54.7177 49.2894 53.508 54.9244 53.508 60.7737V82.8161H39.6655V38.2031Z" fill="white"/>
</g>
</svg>
