<svg width="98" height="98" viewBox="0 0 98 98" fill="none" xmlns="http://www.w3.org/2000/svg">
<g id="skill-icons:instagram" clip-path="url(#clip0_361_699)">
<g id="Group">
<path id="Vector" d="M75.0312 0H22.9688C10.2835 0 0 10.2835 0 22.9688V75.0312C0 87.7165 10.2835 98 22.9688 98H75.0312C87.7165 98 98 87.7165 98 75.0312V22.9688C98 10.2835 87.7165 0 75.0312 0Z" fill="url(#paint0_radial_361_699)"/>
<path id="Vector_2" d="M75.0312 0H22.9688C10.2835 0 0 10.2835 0 22.9688V75.0312C0 87.7165 10.2835 98 22.9688 98H75.0312C87.7165 98 98 87.7165 98 75.0312V22.9688C98 10.2835 87.7165 0 75.0312 0Z" fill="url(#paint1_radial_361_699)"/>
<path id="Vector_3" d="M49.0034 10.7188C38.607 10.7188 37.302 10.7643 33.2189 10.95C29.1435 11.1368 26.3616 11.7818 23.9277 12.7285C21.4096 13.7062 19.2738 15.0143 17.1462 17.1427C15.0166 19.2708 13.7085 21.4065 12.7278 23.9235C11.7784 26.3582 11.1326 29.1412 10.9492 33.2147C10.7666 37.2982 10.7188 38.6036 10.7188 49.0004C10.7188 59.3972 10.7647 60.698 10.95 64.7811C11.1375 68.8565 11.7826 71.6384 12.7285 74.0723C13.707 76.5904 15.0151 78.7262 17.1435 80.8538C19.2708 82.9834 21.4065 84.2945 23.9227 85.2722C26.3586 86.2189 29.1408 86.864 33.2155 87.0508C37.299 87.2365 38.6028 87.282 48.9989 87.282C59.3964 87.282 60.6972 87.2365 64.7803 87.0508C68.8557 86.864 71.6407 86.2189 74.0765 85.2722C76.5935 84.2945 78.7262 82.9834 80.8531 80.8538C82.9826 78.7262 84.2903 76.5904 85.2715 74.0735C86.2124 71.6384 86.8586 68.8557 87.05 64.7818C87.2334 60.6987 87.2812 59.3972 87.2812 49.0004C87.2812 38.6036 87.2334 37.299 87.05 33.2155C86.8586 29.1401 86.2124 26.3586 85.2715 23.9246C84.2903 21.4065 82.9826 19.2708 80.8531 17.1427C78.7239 15.0135 76.5943 13.7055 74.0742 12.7289C71.6338 11.7818 68.8504 11.1364 64.7749 10.95C60.6915 10.7643 59.3914 10.7188 48.9916 10.7188H49.0034ZM45.5692 17.6174C46.5887 17.6159 47.726 17.6174 49.0034 17.6174C59.2249 17.6174 60.4361 17.6542 64.4725 17.8375C68.2049 18.0083 70.2308 18.6319 71.5802 19.1559C73.3668 19.8496 74.6404 20.6791 75.9795 22.0194C77.3193 23.3592 78.1485 24.6351 78.8441 26.4217C79.3681 27.7692 79.9925 29.7951 80.1625 33.5275C80.3458 37.5631 80.3857 38.7751 80.3857 48.9916C80.3857 59.2081 80.3458 60.4204 80.1625 64.4557C79.9917 68.1881 79.3681 70.2139 78.8441 71.5618C78.1504 73.3484 77.3193 74.6205 75.9795 75.9596C74.6396 77.2994 73.3675 78.1286 71.5802 78.8226C70.2323 79.349 68.2049 79.9711 64.4725 80.1418C60.4369 80.3252 59.2249 80.365 49.0034 80.365C38.7816 80.365 37.57 80.3252 33.5348 80.1418C29.8023 79.9695 27.7765 79.3459 26.4259 78.8219C24.6397 78.1278 23.3634 77.2987 22.0236 75.9588C20.6837 74.619 19.8546 73.3461 19.159 71.5588C18.6349 70.2109 18.0106 68.185 17.8406 64.4526C17.6572 60.417 17.6205 59.205 17.6205 48.982C17.6205 38.7594 17.6572 37.5535 17.8406 33.5179C18.0113 29.7855 18.6349 27.7596 19.159 26.4102C19.853 24.6236 20.6837 23.3477 22.024 22.0079C23.3638 20.668 24.6397 19.8385 26.4263 19.1433C27.7757 18.6169 29.8023 17.9949 33.5348 17.8234C37.0662 17.6637 38.4348 17.6159 45.5692 17.6078V17.6174ZM69.438 23.9736C66.9018 23.9736 64.8442 26.0293 64.8442 28.5659C64.8442 31.102 66.9018 33.1596 69.438 33.1596C71.9741 33.1596 74.0317 31.102 74.0317 28.5659C74.0317 26.0297 71.9741 23.9721 69.438 23.9721V23.9736ZM49.0034 29.341C38.1469 29.341 29.3445 38.1434 29.3445 49.0004C29.3445 59.8573 38.1469 68.6555 49.0034 68.6555C59.8604 68.6555 68.6597 59.8573 68.6597 49.0004C68.6597 38.1438 59.8596 29.341 49.0027 29.341H49.0034ZM49.0034 36.2397C56.0506 36.2397 61.7641 41.9524 61.7641 49.0004C61.7641 56.0476 56.0506 61.7611 49.0034 61.7611C41.9559 61.7611 36.2432 56.0476 36.2432 49.0004C36.2432 41.9524 41.9559 36.2397 49.0034 36.2397Z" fill="white"/>
</g>
</g>
<defs>
<radialGradient id="paint0_radial_361_699" cx="0" cy="0" r="1" gradientUnits="userSpaceOnUse" gradientTransform="translate(26.0312 105.548) rotate(-90) scale(97.1253 90.3342)">
<stop stop-color="#FFDD55"/>
<stop offset="0.1" stop-color="#FFDD55"/>
<stop offset="0.5" stop-color="#FF543E"/>
<stop offset="1" stop-color="#C837AB"/>
</radialGradient>
<radialGradient id="paint1_radial_361_699" cx="0" cy="0" r="1" gradientUnits="userSpaceOnUse" gradientTransform="translate(-16.4154 7.05944) rotate(78.681) scale(43.4155 178.96)">
<stop stop-color="#3771C8"/>
<stop offset="0.128" stop-color="#3771C8"/>
<stop offset="1" stop-color="#6600FF" stop-opacity="0"/>
</radialGradient>
<clipPath id="clip0_361_699">
<rect width="98" height="98" fill="white"/>
</clipPath>
</defs>
</svg>
