<svg xmlns="http://www.w3.org/2000/svg" width="1880" height="229" viewBox="0 0 1880 229" fill="none">
<path fill-rule="evenodd" clip-rule="evenodd" d="M1880 197.643L1801.67 208.623C1723.33 219.604 1566.67 241.564 1410 219.604C1253.33 197.643 1096.67 131.762 940 126.272C783.333 120.782 626.667 175.683 470 181.173C313.333 186.663 156.666 142.742 78.3331 120.782L-3.8147e-05 98.8216V0L78.3331 0C156.666 0 313.333 0 470 0C626.667 0 783.333 0 940 0C1096.67 0 1253.33 0 1410 0C1566.67 0 1723.33 0 1801.67 0L1880 0V197.643Z" fill="#061D4B"/>
</svg>