<svg xmlns="http://www.w3.org/2000/svg" width="100%" height="230" viewBox="0 0 100% 230" fill="none">
<path fill-rule="evenodd" clip-rule="evenodd" d="M0 31.4936L78.3333 20.4655C156.667 9.43738 313.333 -12.6189 470 9.43738C626.667 31.4936 783.333 97.6624 940 103.176C1096.67 108.691 1253.33 53.5499 1410 48.0358C1566.67 42.5218 1723.33 86.6343 1801.67 108.691L1880 130.747V230L1801.67 230C1723.33 230 1566.67 230 1410 230C1253.33 230 1096.67 230 940 230C783.333 230 626.667 230 470 230C313.333 230 156.667 230 78.3333 230L0 230L0 31.4936Z" fill="#013399"/>
</svg>