<svg xmlns="http://www.w3.org/2000/svg" width="100%" height="300" viewBox="0 0 100% 300" fill="none">
  <path fill-rule="evenodd" clip-rule="evenodd" d="M0 258.921L78.3333 273.306C156.667 287.69 313.333 316.459 470 287.69C626.667 258.921 783.333 172.614 940 165.422C1096.67 158.23 1255.29 203.5 1411.96 226.5C1625.83 257.898 1718.11 257 1814.72 185L1880 129.461V0H1801.67C1723.33 0 1566.67 0 1410 0C1253.33 0 1096.67 0 940 0C783.333 0 626.667 0 470 0C313.333 0 156.667 0 78.3333 0H0V258.921Z" fill="#013399"/>
</svg>