<svg xmlns="http://www.w3.org/2000/svg" width="100%" height="229" viewBox="0 0 100% 229" fill="none">
  <path fill-rule="evenodd" clip-rule="evenodd" d="M0 31.3567L78.3333 20.3765C156.667 9.39635 313.333 -12.564 470 9.39635C626.667 31.3567 783.333 97.2378 940 102.728C1096.67 108.218 1253.33 53.3171 1410 47.827C1566.67 42.3369 1723.33 86.2576 1801.67 108.218L1880 130.178V229H1801.67C1723.33 229 1566.67 229 1410 229C1253.33 229 1096.67 229 940 229C783.333 229 626.667 229 470 229C313.333 229 156.667 229 78.3333 229H0V31.3567Z" fill="#061D4B"/>
</svg>